<?xml version="1.0" standalone="no"?>
<!DOCTYPE svg PUBLIC "-//W3C//DTD SVG 20010904//EN"
 "http://www.w3.org/TR/2001/REC-SVG-20010904/DTD/svg10.dtd">
<svg version="1.0" xmlns="http://www.w3.org/2000/svg"
 width="512.000000pt" height="512.000000pt" viewBox="0 0 512.000000 512.000000"
 preserveAspectRatio="xMidYMid meet">
<metadata>
Created by potrace 1.14, written by Peter Selinger 2001-2017
</metadata>
<g transform="translate(0.000000,512.000000) scale(0.100000,-0.100000)"
fill="#000000" stroke="none">
<path d="M1490 5085 c-419 -69 -756 -376 -867 -790 -24 -93 -27 -117 -31 -362
-2 -159 -8 -263 -14 -263 -24 0 -117 -105 -144 -163 -25 -53 -29 -74 -29 -147
1 -70 5 -94 27 -140 53 -114 158 -193 274 -208 l56 -7 28 -75 c97 -266 277
-477 513 -600 l67 -35 0 -47 0 -48 -269 0 c-236 0 -277 -2 -330 -19 -113 -35
-194 -100 -254 -202 -56 -95 -57 -109 -57 -781 0 -600 1 -618 19 -628 12 -6
130 -10 312 -10 l293 0 36 -35 c74 -72 626 -485 664 -497 31 -10 46 -9 80 3
37 13 590 428 667 500 30 28 34 29 140 29 l109 0 0 -258 c0 -187 3 -261 12
-270 9 -9 219 -12 884 -12 733 0 873 2 883 14 9 10 11 121 9 408 l-3 393 -32
66 c-39 79 -102 140 -181 177 -49 23 -75 28 -176 32 l-120 5 60 37 c139 86
267 249 318 404 17 51 17 52 65 58 116 15 221 139 221 262 0 54 -30 134 -66
173 l-34 38 0 210 c0 244 -12 311 -81 446 -61 118 -191 247 -309 304 -139 68
-175 74 -442 80 l-238 5 0 502 c0 467 -1 507 -20 585 -80 331 -382 571 -721
571 l-98 0 -88 71 c-109 88 -271 169 -408 205 -94 25 -116 27 -370 30 -198 2
-293 -1 -355 -11z m205 -1107 c37 -77 138 -185 218 -236 34 -22 96 -52 137
-68 l75 -28 415 -6 c409 -5 416 -5 462 -28 26 -13 66 -44 87 -69 152 -172 37
-447 -189 -455 -30 -1 -62 -5 -71 -9 -8 -4 -30 -53 -48 -108 -107 -326 -365
-567 -706 -658 -88 -23 -119 -26 -255 -26 -136 0 -167 3 -255 26 -350 94 -621
357 -720 699 -9 32 -21 61 -28 65 -6 4 -32 8 -57 9 -154 9 -264 109 -277 253
-8 86 17 153 82 217 76 76 110 84 365 84 238 0 310 13 433 77 95 50 210 164
257 255 19 38 37 68 40 67 3 0 18 -27 35 -61z m709 -1699 c14 -36 26 -69 26
-73 0 -4 -35 -6 -77 -4 l-78 3 -3 45 -3 45 53 27 c29 14 54 25 54 24 1 0 13
-31 28 -67z m754 -148 c96 -49 159 -61 312 -61 140 0 160 5 160 41 0 15 8 14
73 -9 72 -27 74 -27 437 -32 314 -4 369 -7 395 -22 63 -34 105 -104 105 -175
0 -94 -87 -183 -179 -183 -26 0 -52 -4 -58 -8 -7 -5 -22 -37 -34 -73 -39 -119
-88 -198 -179 -289 -94 -94 -163 -139 -267 -175 -198 -69 -384 -56 -582 41
-162 80 -298 237 -352 409 -26 81 -39 95 -91 95 -54 0 -98 21 -135 63 -102
116 -37 290 117 313 65 10 70 16 70 99 0 40 3 86 6 102 l6 29 66 -67 c40 -39
92 -79 130 -98z m-1608 104 c194 -51 412 -44 623 21 18 6 19 -2 15 -133 -3
-127 -5 -143 -31 -194 -32 -67 -118 -151 -184 -182 -69 -32 -237 -32 -305 0
-67 31 -145 107 -181 178 -30 57 -32 67 -35 199 l-4 139 24 -7 c12 -4 48 -13
78 -21z m-620 -390 l0 -275 -75 0 c-66 0 -76 -2 -89 -23 -30 -45 -58 -189 -63
-329 l-6 -138 -79 0 -79 0 3 388 c3 378 4 388 26 436 60 131 181 213 315 215
l47 1 0 -275z m248 -66 l-3 -341 -28 -24 c-37 -31 -81 -31 -112 1 l-25 24 0
341 0 340 85 0 86 0 -3 -341z m192 287 c0 -161 115 -327 274 -396 272 -116
587 66 626 362 5 40 10 76 10 81 0 4 23 7 50 7 l50 0 0 -275 0 -275 -560 0
-560 0 0 275 0 275 55 0 55 0 0 -54z m1260 -286 l0 -341 -25 -24 c-30 -31 -73
-32 -109 -4 l-26 20 0 345 0 344 80 0 80 0 0 -340z m87 308 c-3 -7 -5 -2 -5
12 0 14 2 19 5 13 2 -7 2 -19 0 -25z m132 -475 c48 -7 53 -12 75 -78 20 -63
75 -157 132 -227 43 -51 44 -55 44 -124 l0 -71 -64 -17 c-99 -27 -99 -27 -102
85 -4 136 -44 337 -76 377 -7 7 -36 12 -79 12 l-69 0 0 55 0 54 49 -30 c27
-17 67 -33 90 -36z m-1916 -163 c11 -84 91 -147 175 -137 74 8 142 77 142 143
l0 34 570 0 570 0 0 -34 c0 -37 31 -89 73 -120 40 -29 134 -29 173 0 43 31 65
67 71 112 6 42 6 42 49 42 l43 0 16 -52 c29 -100 37 -179 33 -327 -4 -131 -7
-152 -32 -210 -17 -39 -31 -95 -36 -145 -12 -119 -10 -116 -91 -116 -38 0 -69
2 -69 4 0 2 9 23 20 48 133 301 -105 658 -438 658 -115 0 -250 -60 -332 -146
l-50 -53 -50 53 c-28 30 -77 67 -109 84 -190 102 -391 76 -547 -71 -140 -130
-185 -336 -114 -516 11 -28 20 -54 20 -57 0 -3 -33 -4 -72 -2 l-73 3 -22 68
c-65 200 -90 474 -59 640 26 135 27 137 84 137 l49 0 6 -40z m590 -195 c32 -8
76 -24 98 -36 49 -25 120 -95 151 -150 17 -31 28 -39 50 -39 22 0 32 8 47 39
11 21 40 59 64 84 184 189 504 134 622 -107 66 -135 42 -319 -55 -430 -33 -37
-592 -471 -650 -504 -28 -16 -32 -16 -57 -1 -40 22 -591 445 -631 482 -18 18
-50 66 -70 106 -36 72 -37 79 -37 180 0 95 3 112 28 162 38 79 95 140 165 177
99 53 176 63 275 37z m1767 -141 c0 -2 -25 -4 -55 -4 l-55 0 0 40 0 40 55 -36
c30 -20 55 -38 55 -40z m200 -71 c99 -26 292 -24 394 5 43 13 81 20 84 18 2
-3 0 -37 -6 -77 -19 -124 -93 -211 -210 -245 -175 -51 -362 87 -362 268 0 52
2 59 18 54 9 -3 46 -13 82 -23z m-178 -71 c11 -116 94 -229 207 -284 59 -29
75 -33 156 -33 82 0 97 3 157 33 117 57 193 163 213 296 l8 48 116 -4 c94 -3
124 -8 157 -25 67 -35 101 -70 133 -135 l31 -61 0 -354 0 -353 -815 0 -815 0
0 345 c0 394 3 414 82 494 75 75 114 89 259 90 l106 1 5 -58z m-2588 -72 c10
-55 28 -135 42 -177 13 -43 24 -79 24 -80 0 -2 -56 -3 -125 -3 l-125 0 0 180
0 180 83 0 84 0 17 -100z"/>
<path d="M1118 3509 c-24 -14 -23 -48 3 -75 19 -21 21 -33 20 -128 -2 -73 2
-115 13 -140 44 -105 196 -98 242 11 16 37 19 172 4 222 -20 72 -96 114 -166
91 -29 -10 -37 -9 -60 9 -30 24 -32 24 -56 10z"/>
<path d="M2466 3499 c-23 -18 -31 -19 -60 -9 -70 23 -146 -19 -166 -91 -13
-44 -13 -164 0 -210 33 -117 200 -133 246 -23 11 25 15 67 13 140 -1 95 1 107
20 128 26 28 27 62 2 76 -25 13 -24 13 -55 -11z"/>
<path d="M1559 2829 c-36 -68 166 -162 305 -144 71 10 144 39 189 76 38 31 46
56 25 77 -19 19 -35 15 -89 -23 -54 -37 -97 -49 -169 -49 -72 0 -115 12 -169
49 -59 41 -76 43 -92 14z"/>
<path d="M3244 1980 c-49 -20 -64 -56 -64 -152 0 -86 1 -91 29 -119 49 -48
125 -38 156 21 17 33 21 154 5 194 -16 44 -84 74 -126 56z"/>
<path d="M4033 1975 c-17 -7 -39 -27 -47 -44 -21 -40 -21 -152 -1 -196 30 -61
107 -74 156 -26 28 28 29 33 29 121 0 103 -12 132 -62 149 -38 13 -36 13 -75
-4z"/>
<path d="M3502 1508 c-23 -23 -13 -54 26 -81 91 -62 212 -61 303 4 22 16 29
28 27 47 -5 43 -29 48 -78 16 -36 -24 -54 -29 -105 -29 -51 0 -69 5 -101 28
-45 30 -55 32 -72 15z"/>
<path d="M1757 914 c-4 -4 -7 -22 -7 -40 0 -24 -6 -37 -21 -45 -18 -9 -25 -7
-48 15 -15 14 -32 26 -38 26 -18 0 -94 -90 -87 -103 4 -6 15 -21 26 -33 26
-29 14 -54 -27 -54 -45 0 -57 -18 -53 -87 l3 -58 42 -3 c51 -4 66 -31 35 -65
-34 -39 -34 -45 4 -87 41 -45 67 -50 100 -19 35 32 62 18 66 -34 l3 -42 65 0
65 0 3 42 c4 52 31 66 66 34 33 -31 59 -26 100 19 20 22 36 43 36 47 0 4 -12
19 -26 34 -38 39 -26 67 29 71 l42 3 3 58 c4 69 -8 87 -53 87 -41 0 -53 25
-27 54 37 40 36 46 -9 92 -24 24 -48 44 -53 44 -5 0 -22 -12 -37 -26 -36 -35
-66 -21 -71 34 l-3 37 -60 3 c-34 2 -64 0 -68 -4z m154 -179 c68 -44 91 -150
47 -215 -39 -57 -72 -75 -138 -75 -66 0 -99 18 -137 75 -43 62 -23 167 39 212
59 42 126 43 189 3z"/>
</g>
</svg>
